<svg width="267" height="400" viewBox="0 0 267 400" fill="none" xmlns="http://www.w3.org/2000/svg">
<g clip-path="url(#clip0_559_3)">
<path d="M89.76 0C54.82 0 26.5 28.32 26.5 63.26C26.5 98.2 54.82 126.52 89.76 126.52C124.7 126.52 153.02 98.2 153.02 63.26C153.02 28.32 124.7 0 89.76 0ZM89.76 101.68C68.54 101.68 51.34 84.48 51.34 63.26C51.34 42.04 68.54 24.84 89.76 24.84C110.98 24.84 128.18 42.04 128.18 63.26C128.18 84.48 110.98 101.68 89.76 101.68Z" fill="#E5DBCE"/>
<path d="M110.24 399.99C68.6 399.99 29.45 383.77 0 354.33L1.41 352.92C61.42 412.93 159.05 412.93 219.06 352.92C248.13 323.85 264.14 285.2 264.14 244.1C264.14 203 248.13 164.34 219.06 135.28L220.47 133.87C249.92 163.32 266.13 202.47 266.13 244.11C266.13 285.75 249.91 324.9 220.47 354.35C191.03 383.78 151.88 399.99 110.24 399.99Z" fill="#E5DBCE"/>
<path d="M110.24 389.2C73.0599 389.2 35.8898 375.05 7.58984 346.75L8.99985 345.34C64.8198 401.16 155.65 401.16 211.48 345.34C267.3 289.52 267.3 198.68 211.48 142.86L212.89 141.45C269.49 198.05 269.49 290.15 212.89 346.76C184.59 375.05 147.41 389.2 110.24 389.2Z" fill="#E5DBCE"/>
<path d="M110.24 378.54C74.3299 378.54 40.5699 364.55 15.1699 339.16L16.5799 337.75C41.5999 362.77 74.8599 376.54 110.23 376.54C145.61 376.54 178.87 362.76 203.88 337.75C228.9 312.73 242.67 279.47 242.67 244.1C242.67 208.72 228.89 175.46 203.88 150.45L205.29 149.04C230.68 174.43 244.67 208.2 244.67 244.11C244.67 280.02 230.68 313.78 205.29 339.18C179.91 364.55 146.15 378.54 110.24 378.54Z" fill="#E5DBCE"/>
<path d="M110.24 367.75C78.5598 367.75 46.8798 355.69 22.7598 331.57L24.1698 330.16C71.6298 377.62 148.85 377.62 196.31 330.16C243.77 282.7 243.77 205.48 196.31 158.02L197.72 156.61C245.96 204.85 245.96 283.34 197.72 331.57C173.6 355.69 141.92 367.75 110.24 367.75Z" fill="#E5DBCE"/>
<path d="M110.24 357.03C81.3099 357.03 52.3698 346.02 30.3398 323.99L31.7498 322.58C75.0298 365.86 145.44 365.86 188.71 322.58C231.99 279.3 231.99 208.89 188.71 165.62L190.12 164.21C234.17 208.26 234.17 279.95 190.12 324C168.11 346.02 139.17 357.03 110.24 357.03Z" fill="#E5DBCE"/>
<path d="M110.24 346.31C84.0497 346.31 57.8597 336.34 37.9297 316.41L39.3397 315C78.4297 354.09 142.04 354.09 181.13 315C200.07 296.06 210.5 270.88 210.5 244.1C210.5 217.32 200.07 192.14 181.13 173.2L182.54 171.79C201.86 191.1 212.49 216.79 212.49 244.1C212.49 271.41 201.85 297.1 182.54 316.41C162.61 336.34 136.43 346.31 110.24 346.31Z" fill="#E5DBCE"/>
<path d="M110.24 335.59C86.7998 335.59 63.3598 326.67 45.5098 308.82L46.9198 307.41C81.8298 342.32 138.63 342.32 173.54 307.41C208.45 272.5 208.45 215.7 173.54 180.79L174.95 179.38C210.64 215.07 210.64 273.14 174.95 308.83C157.12 326.66 133.68 335.59 110.24 335.59Z" fill="#E5DBCE"/>
<path d="M172.44 126.7L166.67 132.46V126.7H172.44Z" fill="#E5DBCE"/>
<path d="M183.12 126.7L166.67 143.15V137.39L177.36 126.7H183.12Z" fill="#E5DBCE"/>
<path d="M215.1 126.7L166.67 175.12V169.45L209.42 126.7H215.1Z" fill="#E5DBCE"/>
<path d="M204.5 126.7L166.67 164.52V158.76L198.74 126.7H204.5Z" fill="#E5DBCE"/>
<path d="M193.81 126.7L166.67 153.84V148.07L188.05 126.7H193.81Z" fill="#E5DBCE"/>
</g>
<defs>
<clipPath id="clip0_559_3">
<rect width="267" height="400" fill="white"/>
</clipPath>
</defs>
</svg>
