<svg width="184" height="146" viewBox="0 0 184 146" fill="none" xmlns="http://www.w3.org/2000/svg">
<path d="M90.6543 66.419C93.0909 68.055 95.6237 69.769 97.9962 71.3583C99.3909 72.2776 100.673 73.119 101.667 73.7578C102.132 74.1785 102.854 74.646 103.366 75.0355C103.094 74.8018 103.238 74.8173 103.463 74.9731C105.082 76.095 103.607 74.9887 105.29 76.0794C106.22 76.6559 108.336 78.105 110.468 79.5852C113.482 81.6887 116.528 83.8078 117.97 84.8206C118.066 84.4934 118.131 84.2908 118.179 84.1194C118.387 83.0755 118.66 82.0471 118.948 81.0187C119.092 80.5045 119.221 79.9904 119.365 79.4918C119.413 79.2892 119.461 79.0866 119.509 78.8997C119.541 78.7594 119.557 78.6348 119.589 78.4945V78.6036C119.83 77.4973 121.657 71.3271 121.962 70.0494L121.898 70.2208C122.122 69.0834 122.218 69.286 122.507 68.4134C122.315 68.4913 122.491 67.5097 122.587 67.1513L122.619 67.1669C122.747 66.606 122.956 65.3439 123.18 64.4246L123.26 64.4869C123.373 63.7078 123.805 62.3055 123.934 61.7602C124.302 60.5292 124.976 58.6595 125.312 56.9767L125.841 55.9639L125.857 55.8081L126.402 52.0685C126.515 51.2116 122.86 53.1904 122.812 53.0969C123.068 52.9878 123.341 52.8944 123.421 52.8788C123.341 52.8632 122.811 53.0502 122.539 53.1904V53.3151C121.93 53.6111 122.363 53.315 121.753 53.5643C121.689 53.4864 122.234 53.2371 122.731 53.019C122.282 53.1904 121.802 53.3151 121.657 53.4865C121.224 53.6267 121.657 53.3618 121.128 53.5332C120.776 53.7046 120.343 53.985 119.894 54.1097V54.0941C118.836 54.4213 118.403 54.8732 117.441 55.1536L117.521 55.0757C117.169 55.1536 116.56 55.4964 115.95 55.6834C116.127 55.6367 116.303 55.6367 115.95 55.7925C115.245 56.0106 114.812 56.2599 114.283 56.4002L113.85 56.6806C111.478 57.6311 102.196 61.5888 99.8398 62.586L99.9199 62.5392C97.5955 63.5364 94.2612 64.9232 90.6543 66.419Z" fill="#E5DBCE" fill-opacity="0.5"/>
<path d="M83.5679 37.5622C85.9885 35.895 88.5054 34.1499 90.8458 32.545C92.2084 31.5945 93.4588 30.7064 94.4206 30.0052C94.9817 29.7248 95.687 29.2262 96.2321 28.8834C95.9115 29.0548 95.9756 28.9301 96.216 28.7743C97.8511 27.668 96.2801 28.6497 97.9153 27.4811C98.7969 26.8266 100.913 25.3776 103.077 23.9285C106.139 21.8873 109.233 19.8306 110.692 18.849C110.403 18.6464 110.227 18.5373 110.082 18.4283C109.153 17.8829 108.239 17.2908 107.341 16.6676C106.892 16.3715 106.444 16.0599 105.995 15.7794C105.818 15.6704 105.642 15.5457 105.466 15.4367C105.337 15.3587 105.225 15.2964 105.097 15.2185L105.209 15.2497C104.215 14.642 98.8771 10.8869 97.7389 10.1702L97.8832 10.2948C96.8572 9.70272 97.0817 9.67155 96.3443 9.1262C96.3603 9.31318 95.4786 8.83015 95.142 8.62759L95.1741 8.61202C94.6771 8.31597 93.5229 7.69272 92.7214 7.17853L92.8015 7.13178C92.0962 6.75783 90.8778 5.90086 90.3969 5.58923C89.3389 4.82574 87.7519 3.57923 86.2451 2.69109L85.4595 1.86528L85.3153 1.78737L81.8847 0.0266806C81.0992 -0.362854 81.7725 3.64156 81.6603 3.65714C81.6442 3.37668 81.6443 3.11179 81.6443 3.0183C81.5962 3.09621 81.5962 3.64156 81.6443 3.92202L81.7725 3.96876C81.8527 4.63876 81.7084 4.12459 81.7565 4.779C81.6603 4.82575 81.6122 4.21807 81.5641 3.6883C81.5801 4.15574 81.5321 4.63877 81.6443 4.82574C81.6283 5.2776 81.516 4.779 81.5 5.32435C81.5481 5.6983 81.6764 6.1969 81.6443 6.64876H81.6283C81.5802 7.72388 81.8687 8.26922 81.8206 9.25085L81.7885 9.14178C81.7565 9.48457 81.8687 10.1702 81.8367 10.7934C81.8527 10.6064 81.9168 10.4506 81.9489 10.8246C81.9329 11.5413 82.013 12.0243 81.9649 12.5541L82.0931 13.0527C82.2053 15.5457 82.8787 25.3776 83.039 27.8706L83.0229 27.7771C83.1351 30.2389 83.3435 33.7603 83.5679 37.5622Z" fill="#E5DBCE" fill-opacity="0.5"/>
<path d="M80.9062 136.94C83.7597 137.672 86.7574 138.436 89.5307 139.153C91.1658 139.558 92.6566 139.916 93.8268 140.181C94.4039 140.43 95.2535 140.633 95.8787 140.82C95.5421 140.695 95.6704 140.649 95.9429 140.726C97.8666 141.241 96.0872 140.695 98.0429 141.163C99.1169 141.396 101.618 142.051 104.151 142.736C107.709 143.718 111.332 144.7 113.047 145.167C113.015 144.824 113.015 144.622 112.999 144.45C112.839 143.406 112.727 142.347 112.631 141.272C112.583 140.742 112.534 140.212 112.486 139.698C112.47 139.496 112.438 139.293 112.422 139.09C112.406 138.95 112.374 138.825 112.358 138.685L112.406 138.794C112.246 137.672 111.797 131.269 111.621 129.96V130.131C111.428 128.994 111.605 129.134 111.557 128.23C111.412 128.37 111.236 127.389 111.188 127.015L111.22 127.03C111.14 126.469 110.883 125.207 110.787 124.272L110.883 124.304C110.723 123.54 110.627 122.076 110.563 121.515C110.483 120.237 110.451 118.258 110.178 116.56L110.322 115.438L110.29 115.282L109.489 111.589C109.296 110.748 106.555 113.817 106.475 113.74C106.683 113.553 106.892 113.366 106.972 113.319C106.876 113.334 106.459 113.677 106.251 113.895L106.299 114.02C105.818 114.503 106.138 114.067 105.641 114.519C105.545 114.472 105.978 114.051 106.379 113.677C106.01 113.989 105.609 114.269 105.529 114.472C105.16 114.737 105.481 114.347 105.048 114.69C104.776 114.97 104.471 115.376 104.102 115.64V115.625C103.221 116.279 102.964 116.84 102.163 117.432L102.227 117.339C101.922 117.526 101.473 118.056 100.96 118.429C101.105 118.32 101.281 118.274 100.992 118.523C100.415 118.959 100.079 119.349 99.6299 119.645L99.3093 120.05C97.4177 121.733 90.0757 128.526 88.2001 130.24L88.2642 130.162C86.4207 131.923 83.7597 134.338 80.9062 136.94Z" fill="#E5DBCE" fill-opacity="0.5"/>
<path d="M145.83 73.15C147.818 75.2847 149.886 77.5284 151.793 79.6007C152.932 80.8005 153.974 81.9068 154.807 82.7481C155.16 83.2623 155.753 83.8856 156.154 84.3686C155.945 84.0726 156.074 84.1193 156.266 84.3374C157.58 85.7865 156.41 84.3842 157.773 85.8333C158.542 86.6123 160.258 88.4821 161.989 90.3986C164.426 93.1098 166.894 95.8677 168.064 97.1609C168.241 96.8649 168.337 96.6779 168.433 96.5376C168.882 95.5716 169.395 94.6367 169.908 93.6863C170.164 93.2188 170.421 92.7514 170.677 92.2839C170.774 92.097 170.87 91.9256 170.966 91.7386C171.03 91.6139 171.078 91.4893 171.142 91.3646L171.126 91.4737C171.623 90.4453 174.861 84.8516 175.454 83.6674L175.342 83.8077C175.823 82.7481 175.887 82.9663 176.368 82.1872C176.176 82.2184 176.561 81.3147 176.737 80.9719L176.753 81.003C177.009 80.4888 177.506 79.3047 177.939 78.4633L178.003 78.5412C178.292 77.8089 179.045 76.5312 179.302 76.0326C179.959 74.9263 181.049 73.2435 181.77 71.6854L182.524 70.8284L182.572 70.6726L183.983 67.1668C184.287 66.3565 180.264 67.4628 180.248 67.3693C180.536 67.3226 180.809 67.2914 180.905 67.2914C180.825 67.2603 180.264 67.3226 179.975 67.4005L179.943 67.5251C179.27 67.681 179.767 67.4784 179.109 67.6031C179.061 67.5096 179.654 67.3849 180.2 67.2914C179.719 67.3538 179.222 67.3693 179.045 67.5096C178.58 67.5407 179.077 67.3849 178.516 67.4317C178.132 67.5251 177.635 67.6965 177.186 67.7121V67.6965C176.08 67.7744 175.551 68.1172 174.541 68.1796L174.637 68.1328C174.284 68.1328 173.595 68.3198 172.954 68.3665C173.146 68.3509 173.306 68.3977 172.938 68.4756C172.2 68.5379 171.719 68.6782 171.174 68.6937L170.677 68.8651C168.145 69.2547 158.174 71.0465 155.641 71.4828L155.737 71.4517C153.268 71.8879 149.677 72.4956 145.83 73.15Z" fill="#E5DBCE" fill-opacity="0.5"/>
<path d="M131.562 35.2249C134.448 35.8482 137.478 36.487 140.283 37.0947C141.934 37.4375 143.441 37.7335 144.611 37.9672C145.204 38.1854 146.054 38.3568 146.679 38.5281C146.327 38.4035 146.471 38.3723 146.743 38.4347C148.683 38.8709 146.888 38.4035 148.859 38.793C149.95 38.9956 152.466 39.5409 155.031 40.133C158.638 40.9588 162.293 41.8158 164.024 42.2054C163.992 41.8626 163.96 41.66 163.944 41.4886C163.736 40.4446 163.575 39.4007 163.447 38.3412C163.367 37.8114 163.303 37.2816 163.239 36.7674C163.207 36.5649 163.175 36.3623 163.143 36.1598C163.111 36.0195 163.095 35.8949 163.063 35.7547L163.111 35.8637C162.902 34.7419 162.197 28.3691 161.956 27.0758V27.2628C161.716 26.141 161.892 26.2656 161.828 25.3619C161.684 25.5021 161.459 24.5361 161.411 24.1621L161.443 24.1777C161.347 23.6168 161.027 22.3703 160.882 21.4354L160.979 21.4666C160.786 20.7031 160.626 19.254 160.546 18.6931C160.417 17.4154 160.305 15.4366 159.953 13.7538L160.049 12.6319L160.001 12.4761L159.039 8.83007C158.814 8.00425 156.201 11.1829 156.121 11.1049C156.33 10.9024 156.522 10.7154 156.602 10.6687C156.506 10.6842 156.105 11.0582 155.913 11.2763L155.961 11.401C155.512 11.8996 155.801 11.4633 155.336 11.9308C155.24 11.884 155.656 11.4477 156.041 11.0738C155.688 11.401 155.288 11.6815 155.224 11.8996C154.871 12.1956 155.176 11.7749 154.759 12.1333C154.502 12.4294 154.214 12.8501 153.845 13.1149V13.0994C152.995 13.7849 152.771 14.3614 151.985 14.9847L152.034 14.8912C151.745 15.0938 151.296 15.6391 150.815 16.0287C150.959 15.9196 151.12 15.8573 150.863 16.1377C150.302 16.6052 149.998 16.9947 149.549 17.3063L149.26 17.727C147.433 19.4877 140.395 26.5617 138.584 28.3535L138.648 28.2756C136.853 29.9896 134.304 32.5137 131.562 35.2249Z" fill="#E5DBCE" fill-opacity="0.5"/>
<path d="M48.543 102.677C51.4926 102.942 54.5704 103.222 57.4238 103.471C59.091 103.612 60.646 103.736 61.8322 103.798C62.4414 103.954 63.3071 104.017 63.9643 104.095C63.6117 104.017 63.7399 103.97 64.0125 104.001C66.0002 104.204 64.1567 103.954 66.1605 104.095C67.2666 104.157 69.8315 104.406 72.4444 104.671C76.1315 105.061 79.8666 105.45 81.63 105.637C81.5498 105.31 81.5017 105.107 81.4536 104.936C81.1169 103.939 80.8284 102.91 80.5559 101.866C80.4116 101.352 80.2674 100.838 80.1392 100.339C80.075 100.137 80.0269 99.9499 79.9628 99.7473C79.9147 99.6227 79.8827 99.4825 79.8346 99.3578L79.8987 99.4513C79.546 98.3606 78.0231 92.128 77.6384 90.8659L77.6704 91.0373C77.2857 89.9466 77.4781 90.0557 77.2857 89.1676C77.1574 89.3234 76.8208 88.3885 76.7086 88.0302H76.7407C76.5644 87.4848 76.0994 86.285 75.8429 85.3813L75.9392 85.3969C75.6506 84.6646 75.2979 83.2311 75.1536 82.7013C74.865 81.4548 74.4964 79.5071 73.9354 77.8711L73.8872 76.7337L73.8231 76.5778L72.3964 73.072C72.0598 72.2774 69.8796 75.7364 69.7995 75.6741C69.9758 75.456 70.1521 75.2378 70.2163 75.1911C70.1361 75.2223 69.7674 75.6274 69.6071 75.8767L69.6712 75.9858C69.2865 76.5467 69.5109 76.0637 69.1102 76.5934C69.014 76.5623 69.3666 76.0792 69.6872 75.6585C69.3827 76.0325 69.03 76.3597 68.9819 76.5778C68.6773 76.905 68.9177 76.4688 68.549 76.8583C68.3406 77.1855 68.1002 77.6374 67.7636 77.949L67.7475 77.9334C66.9941 78.7125 66.8338 79.3202 66.1445 80.0369L66.1765 79.9278C65.9201 80.1616 65.5514 80.7536 65.1025 81.2055C65.2308 81.0809 65.391 81.0029 65.1666 81.299C64.6697 81.8288 64.4132 82.2495 64.0125 82.6234L63.772 83.0753C62.1849 85.0385 56.1094 92.9227 54.5544 94.9015L54.6025 94.8236C53.1276 96.8492 50.9315 99.6538 48.543 102.677Z" fill="#E5DBCE" fill-opacity="0.5"/>
<path d="M18.7089 140.68C20.1196 138.156 21.5943 135.507 22.973 133.06C23.7584 131.627 24.4799 130.287 25.0249 129.259C25.4096 128.776 25.8103 128.028 26.147 127.482C25.9386 127.778 25.9386 127.638 26.0829 127.389C27.0607 125.69 26.0829 127.249 27.0287 125.503C27.5257 124.537 28.776 122.34 30.0584 120.112C31.8859 116.98 33.7294 113.802 34.5951 112.29C34.2424 112.228 34.0341 112.197 33.8577 112.166C32.7677 112.072 31.6936 111.932 30.6035 111.761C30.0585 111.683 29.5134 111.605 29.0004 111.527C28.792 111.496 28.5836 111.48 28.3752 111.449C28.231 111.433 28.0867 111.418 27.9584 111.418L28.0706 111.402C26.9004 111.278 20.4081 110.187 19.0615 110.031L19.2378 110.078C18.0516 109.984 18.2439 109.86 17.3302 109.688C17.4264 109.86 16.4164 109.797 16.0317 109.751L16.0478 109.72C15.4707 109.657 14.1402 109.595 13.1944 109.486L13.2424 109.408C12.4409 109.377 10.9501 109.127 10.373 109.05C9.07451 108.816 7.08671 108.38 5.33938 108.224L4.24931 107.819H4.073L0.193643 107.71C-0.688036 107.694 1.73251 111.013 1.63633 111.06C1.49206 110.81 1.36382 110.577 1.34779 110.499C1.33176 110.577 1.58827 111.075 1.7646 111.309L1.89287 111.293C2.26158 111.854 1.90886 111.465 2.2455 112.026C2.18138 112.103 1.86081 111.589 1.58829 111.137C1.81272 111.558 1.98905 112.01 2.18141 112.119C2.37378 112.524 2.05316 112.135 2.27759 112.618C2.50202 112.945 2.83868 113.334 2.99898 113.74H2.98294C3.43179 114.721 3.92868 115.095 4.32945 115.999L4.24931 115.921C4.37756 116.248 4.77831 116.809 5.03479 117.386C4.95464 117.214 4.95465 117.058 5.14702 117.37C5.4516 118.024 5.75618 118.43 5.94855 118.913L6.28522 119.302C7.51957 121.483 12.5691 130.022 13.8355 132.203L13.7714 132.126C15.0218 134.276 16.8012 137.361 18.7089 140.68Z" fill="#E5DBCE" fill-opacity="0.5"/>
<path d="M48.3029 67.8679C46.7159 65.4372 45.0488 62.8975 43.5098 60.5447C42.5961 59.1735 41.7465 57.9114 41.0733 56.9454C40.8168 56.3845 40.3358 55.6833 40.0152 55.1224C40.1755 55.4496 40.0472 55.3717 39.903 55.138C38.845 53.4863 39.7748 55.06 38.6687 53.424C38.0435 52.5359 36.6648 50.4168 35.2862 48.2354C33.3465 45.1659 31.3748 42.0652 30.445 40.585C30.2206 40.8498 30.0923 41.0057 29.9801 41.1459C29.3709 42.034 28.7137 42.8754 28.0404 43.7168C27.7038 44.1375 27.3832 44.5582 27.0466 44.9789C26.9183 45.1503 26.79 45.3061 26.6778 45.4619C26.5976 45.571 26.5175 45.6956 26.4374 45.8047L26.4854 45.6956C25.8121 46.6305 21.6763 51.6321 20.8908 52.6917L21.0191 52.567C20.3618 53.5331 20.3457 53.3149 19.7365 54.0005C19.9289 54.0005 19.3839 54.8263 19.1595 55.138L19.1434 55.1068C18.8068 55.5742 18.1175 56.6649 17.5404 57.4128L17.4923 57.3349C17.0755 58.0049 16.1297 59.1424 15.777 59.5942C14.9435 60.5914 13.5809 62.0561 12.603 63.4896L11.7053 64.2219L11.6251 64.3621L9.63733 67.603C9.18848 68.351 13.3564 67.8991 13.3564 67.9926C13.0679 67.9926 12.7794 67.9926 12.6992 67.977C12.7633 68.0237 13.3243 68.0549 13.6289 68.0237L13.6771 67.8991C14.3664 67.8524 13.8374 67.977 14.5107 67.9614C14.5427 68.0549 13.9336 68.0861 13.3885 68.0861C13.8694 68.0861 14.3663 68.164 14.5587 68.0549C15.0236 68.0861 14.5106 68.1796 15.0557 68.2107C15.4404 68.1796 15.9695 68.0861 16.4183 68.1484L16.4023 68.164C17.5084 68.2575 18.0855 68.0081 19.0954 68.1016L18.9832 68.1328C19.3358 68.1951 20.0412 68.1172 20.6824 68.164C20.5061 68.1484 20.3458 68.0705 20.7305 68.0549C21.4679 68.1172 21.9649 68.0549 22.5099 68.1172L23.0229 68.0237C25.5878 68.0393 35.719 67.8835 38.2999 67.8524L38.2037 67.8679C40.7526 67.9147 44.3915 67.8991 48.3029 67.8679Z" fill="#E5DBCE" fill-opacity="0.5"/>
</svg>
